<svg xmlns="http://www.w3.org/2000/svg"
   xmlns:xlink="http://www.w3.org/1999/xlink"
   version="1.1"
   id="XOR3_1" width="100%" height="100%"  viewBox="-6 -6 578 222">
<desc>
XCircuit Version 3.8
File "XOR3_1.ps" Page 1
</desc>
<g stroke="black">
<path d="M64,108 L192,108 " fill="none" stroke-width="4" stroke-linejoin="bevel" stroke-linecap="round" stroke="#000000" />
<path d="M64,44 L176,44 " fill="none" stroke-width="4" stroke-linejoin="bevel" stroke-linecap="round" stroke="#000000" />
<path d="M64,172 L176,172 " fill="none" stroke-width="4" stroke-linejoin="bevel" stroke-linecap="round" stroke="#000000" />
<g transform="matrix(   1    0   -0    1   0  60)" fill="#000000" >
<text stroke="none" font-family="Helvetica" font-size="40" ><tspan x="0" y="0">A</tspan>
</text></g>
<g transform="matrix(   1    0   -0    1   0 124)" fill="#000000" >
<text stroke="none" font-family="Helvetica" font-size="40" ><tspan x="0" y="0">B</tspan>
</text></g>
<g transform="matrix(   1    0   -0    1   0 188)" fill="#000000" >
<text stroke="none" font-family="Helvetica" font-size="40" ><tspan x="0" y="0">C</tspan>
</text></g>
<path d="M448,108 L544,108 " fill="none" stroke-width="4" stroke-linejoin="bevel" stroke-linecap="round" stroke="#000000" />
<g transform="matrix(   1    0   -0    1 544 124)" fill="#000000" >
<text stroke="none" font-family="Helvetica" font-size="40" ><tspan x="0" y="0">Y</tspan>
</text></g>
<path d="M448,108 A216,216 0 0,0 261,0 " fill="none" stroke-width="4.5" stroke-linejoin="bevel" stroke-linecap="round" stroke="#000000" />
<path d="M261,216 A216,216 0 0,0 448,108 " fill="none" stroke-width="4.5" stroke-linejoin="bevel" stroke-linecap="round" stroke="#000000" />
<path d="M160,216 A180,180 0 0,0 160,0 " fill="none" stroke-width="4.5" stroke-linejoin="bevel" stroke-linecap="round" stroke="#000000" />
<path d="M196,216 A180,180 0 0,0 196,0 " fill="none" stroke-width="4.5" stroke-linejoin="bevel" stroke-linecap="round" stroke="#000000" />
<path d="M196,0 L261,0 " fill="none" stroke-width="4.5" stroke-linejoin="bevel" stroke-linecap="round" stroke="#000000" />
<path d="M196,216 L261,216 " fill="none" stroke-width="4.5" stroke-linejoin="bevel" stroke-linecap="round" stroke="#000000" />
</g>
</svg>
