<svg xmlns="http://www.w3.org/2000/svg"
   xmlns:xlink="http://www.w3.org/1999/xlink"
   version="1.1"
   id="ex5-13_2bitShifter" width="100%" height="100%"  viewBox="-6 -6 479 684">
<desc>
XCircuit Version 3.8
File "ex5-13_2bitShifter" Page 1
</desc>
<g stroke="black">
<path d="M64,10 L160,10 " fill="none" stroke-width="2" stroke-linejoin="bevel" stroke-linecap="round" stroke="#000000" />
<path d="M64,74 L160,74 " fill="none" stroke-width="2" stroke-linejoin="bevel" stroke-linecap="round" stroke="#000000" />
<path d="M64,138 L416,138 " fill="none" stroke-width="2" stroke-linejoin="bevel" stroke-linecap="round" stroke="#000000" />
<path d="M64,202 L416,202 " fill="none" stroke-width="2" stroke-linejoin="bevel" stroke-linecap="round" stroke="#000000" />
<path d="M64,330 L416,330 " fill="none" stroke-width="2" stroke-linejoin="bevel" stroke-linecap="round" stroke="#000000" />
<path d="M64,394 L416,394 " fill="none" stroke-width="2" stroke-linejoin="bevel" stroke-linecap="round" stroke="#000000" />
<path d="M320,458 L416,458 " fill="none" stroke-width="2" stroke-linejoin="bevel" stroke-linecap="round" stroke="#000000" />
<path d="M320,522 L416,522 " fill="none" stroke-width="2" stroke-linejoin="bevel" stroke-linecap="round" stroke="#000000" />
<path d="M320,458 L320,618 " fill="none" stroke-width="2" stroke-linejoin="bevel" stroke-linecap="round" stroke="#000000" />
<path d="M320,618 L320,650 " fill="none" stroke-width="2" stroke-linejoin="bevel" stroke-linecap="round" stroke="#000000" />
<path d="M288,650 L352,650 " fill="none" stroke-width="2" stroke-linejoin="bevel" stroke-linecap="round" stroke="#000000" />
<path d="M302,664 L338,664 " fill="none" stroke-width="2" stroke-linejoin="bevel" stroke-linecap="round" stroke="#000000" />
<path d="M316,678 L324,678 " fill="none" stroke-width="2" stroke-linejoin="bevel" stroke-linecap="round" stroke="#000000" />
<g transform="matrix(   1    0   -0    1   0  26)" fill="#000000" >
<text stroke="none" font-family="Helvetica" font-size="40" ><tspan x="0" y="0">A<tspan dy="9" font-size="26.8">32</tspan></tspan>
</text></g>
<g transform="matrix(   1    0   -0    1   0  90)" fill="#000000" >
<text stroke="none" font-family="Helvetica" font-size="40" ><tspan x="0" y="0">A<tspan dy="9" font-size="26.8">31</tspan></tspan>
</text></g>
<g transform="matrix(   1    0   -0    1   0 154)" fill="#000000" >
<text stroke="none" font-family="Helvetica" font-size="40" ><tspan x="0" y="0">A<tspan dy="9" font-size="26.8">30</tspan></tspan>
</text></g>
<g transform="matrix(   1    0   -0    1   0 218)" fill="#000000" >
<text stroke="none" font-family="Helvetica" font-size="40" ><tspan x="0" y="0">A<tspan dy="9" font-size="26.8">29</tspan></tspan>
</text></g>
<g transform="matrix(   1    0   -0    1   0 346)" fill="#000000" >
<text stroke="none" font-family="Helvetica" font-size="40" ><tspan x="0" y="0">A<tspan dy="9" font-size="26.8">1</tspan></tspan>
</text></g>
<g transform="matrix(   1    0   -0    1   0 410)" fill="#000000" >
<text stroke="none" font-family="Helvetica" font-size="40" ><tspan x="0" y="0">A<tspan dy="9" font-size="26.8">0</tspan></tspan>
</text></g>
<g transform="matrix(   1    0   -0    1 416 538)" fill="#000000" >
<text stroke="none" font-family="Helvetica" font-size="40" ><tspan x="0" y="0">Y<tspan dy="9" font-size="26.8">0</tspan></tspan>
</text></g>
<g transform="matrix(   1    0   -0    1 416 474)" fill="#000000" >
<text stroke="none" font-family="Helvetica" font-size="40" ><tspan x="0" y="0">Y<tspan dy="9" font-size="26.8">1</tspan></tspan>
</text></g>
<g transform="matrix(   1    0   -0    1 416 410)" fill="#000000" >
<text stroke="none" font-family="Helvetica" font-size="40" ><tspan x="0" y="0">Y<tspan dy="9" font-size="26.8">2</tspan></tspan>
</text></g>
<g transform="matrix(   1    0   -0    1 416 346)" fill="#000000" >
<text stroke="none" font-family="Helvetica" font-size="40" ><tspan x="0" y="0">Y<tspan dy="9" font-size="26.8">3</tspan></tspan>
</text></g>
<g transform="matrix(   1    0   -0    1 416 218)" fill="#000000" >
<text stroke="none" font-family="Helvetica" font-size="40" ><tspan x="0" y="0">Y<tspan dy="9" font-size="26.8">31</tspan></tspan>
</text></g>
<g transform="matrix(   1    0   -0    1 416 154)" fill="#000000" >
<text stroke="none" font-family="Helvetica" font-size="40" ><tspan x="0" y="0">Y<tspan dy="9" font-size="26.8">32</tspan></tspan>
</text></g>
</g>
</svg>
