<svg xmlns="http://www.w3.org/2000/svg"
   xmlns:xlink="http://www.w3.org/1999/xlink"
   version="1.1"
   id="ex5-7_circuite_PriorityEncoder" width="100%" height="100%"  viewBox="-6 -6 1702 534">
<desc>
XCircuit Version 3.8
File "ex5-7_circuite_PriorityEncoder" Page 1
</desc>
<g stroke="black">
<path d="M1360,336 L1389,336 " fill="none" stroke-width="2" stroke-linejoin="bevel" stroke-linecap="round" stroke="#000000" />
<path d="M1360,432 L1389,432 " fill="none" stroke-width="2" stroke-linejoin="bevel" stroke-linecap="round" stroke="#000000" />
<path d="M1360,432 A80,80 0 0,0 1360,336 " fill="none" stroke-width="2" stroke-linejoin="bevel" stroke-linecap="round" stroke="#000000" />
<ellipse cx="1480" cy="384" rx="8" ry="8" fill="none" stroke-width="2" stroke-linejoin="bevel" stroke-linecap="round" stroke="#000000" />
<path d="M1472,384 A96,96 0 0,0 1389,336 " fill="none" stroke-width="2" stroke-linejoin="bevel" stroke-linecap="round" stroke="#000000" />
<path d="M1389,432 A96,96 0 0,0 1472,384 " fill="none" stroke-width="2" stroke-linejoin="bevel" stroke-linecap="round" stroke="#000000" />
<path d="M1232,304 L1584,304 " fill="none" stroke-width="2" stroke-linejoin="bevel" stroke-linecap="round" stroke="#000000" />
<path d="M1296,304 L1296,368 1376,368 " fill="none" stroke-width="2" stroke-linejoin="bevel" stroke-linecap="round" stroke="#000000" />
<path d="M1232,400 L1376,400 " fill="none" stroke-width="2" stroke-linejoin="bevel" stroke-linecap="round" stroke="#000000" />
<path d="M1488,384 L1584,384 " fill="none" stroke-width="2" stroke-linejoin="bevel" stroke-linecap="round" stroke="#000000" />
<path d="M1232,352 L1232,352 1136,352 " fill="none" stroke-width="6" stroke-linejoin="bevel" stroke-linecap="round" stroke="#000000" />
<path d="M1232,400 L1232,352 " fill="none" stroke-width="2" stroke-linejoin="bevel" stroke-linecap="round" stroke="#000000" />
<path d="M1024,144 A96,96 0 0,0 941,96 " fill="none" stroke-width="2" stroke-linejoin="bevel" stroke-linecap="round" stroke="#000000" />
<path d="M941,192 A96,96 0 0,0 1024,144 " fill="none" stroke-width="2" stroke-linejoin="bevel" stroke-linecap="round" stroke="#000000" />
<path d="M912,192 A80,80 0 0,0 912,96 " fill="none" stroke-width="2" stroke-linejoin="bevel" stroke-linecap="round" stroke="#000000" />
<path d="M912,96 L941,96 " fill="none" stroke-width="2" stroke-linejoin="bevel" stroke-linecap="round" stroke="#000000" />
<path d="M912,192 L941,192 " fill="none" stroke-width="2" stroke-linejoin="bevel" stroke-linecap="round" stroke="#000000" />
<path d="M1024,144 L1104,144 1104,208 " fill="none" stroke-width="2" stroke-linejoin="bevel" stroke-linecap="round" stroke="#000000" />
<path d="M1072,272 L784,272 " fill="none" stroke-width="6" stroke-linejoin="bevel" stroke-linecap="round" stroke="#000000" />
<path d="M928,144 L848,144 848,272 " fill="none" stroke-width="6" stroke-linejoin="bevel" stroke-linecap="round" stroke="#000000" />
<path d="M1072,192 L1136,224 1136,448 1072,480 1072,192 " fill="none" stroke-width="2" stroke-linejoin="bevel" stroke-linecap="round" stroke="#000000" />
<path d="M1072,400 L784,400 " fill="none" stroke-width="6" stroke-linejoin="bevel" stroke-linecap="round" stroke="#000000" />
<path d="M1104,144 L1584,144 " fill="none" stroke-width="2" stroke-linejoin="bevel" stroke-linecap="round" stroke="#000000" />
<path d="M784,272 L784,336 688,336 " fill="none" stroke-width="6" stroke-linejoin="bevel" stroke-linecap="round" stroke="#000000" />
<path d="M784,400 L784,336 " fill="none" stroke-width="6" stroke-linejoin="bevel" stroke-linecap="round" stroke="#000000" />
<path d="M688,496 L624,528 624,144 688,176 688,496 " fill="none" stroke-width="2" stroke-linejoin="bevel" stroke-linecap="round" stroke="#000000" />
<path d="M576,48 A96,96 0 0,0 493,0 " fill="none" stroke-width="2" stroke-linejoin="bevel" stroke-linecap="round" stroke="#000000" />
<path d="M493,96 A96,96 0 0,0 576,48 " fill="none" stroke-width="2" stroke-linejoin="bevel" stroke-linecap="round" stroke="#000000" />
<path d="M464,96 A80,80 0 0,0 464,0 " fill="none" stroke-width="2" stroke-linejoin="bevel" stroke-linecap="round" stroke="#000000" />
<path d="M464,0 L493,0 " fill="none" stroke-width="2" stroke-linejoin="bevel" stroke-linecap="round" stroke="#000000" />
<path d="M464,96 L493,96 " fill="none" stroke-width="2" stroke-linejoin="bevel" stroke-linecap="round" stroke="#000000" />
<path d="M576,48 L1584,48 " fill="none" stroke-width="2" stroke-linejoin="bevel" stroke-linecap="round" stroke="#000000" />
<path d="M624,240 L336,240 " fill="none" stroke-width="6" stroke-linejoin="bevel" stroke-linecap="round" stroke="#000000" />
<path d="M624,432 L336,432 " fill="none" stroke-width="6" stroke-linejoin="bevel" stroke-linecap="round" stroke="#000000" />
<path d="M336,240 L336,320 176,320 " fill="none" stroke-width="6" stroke-linejoin="bevel" stroke-linecap="round" stroke="#000000" />
<path d="M336,432 L336,320 " fill="none" stroke-width="6" stroke-linejoin="bevel" stroke-linecap="round" stroke="#000000" />
<path d="M400,240 L400,48 480,48 " fill="none" stroke-width="6" stroke-linejoin="bevel" stroke-linecap="round" stroke="#000000" />
<path d="M656,160 L656,48 " fill="none" stroke-width="2" stroke-linejoin="bevel" stroke-linecap="round" stroke="#000000" />
<g transform="matrix(   1    0   -0    1 640 256)" fill="#000000" >
<text stroke="none" font-family="Helvetica" font-size="40" ><tspan x="0" y="0">1</tspan>
</text></g>
<g transform="matrix(   1    0   -0    1 640 448)" fill="#000000" >
<text stroke="none" font-family="Helvetica" font-size="40" ><tspan x="0" y="0">0</tspan>
</text></g>
<g transform="matrix(   1    0   -0    1 1088 288)" fill="#000000" >
<text stroke="none" font-family="Helvetica" font-size="40" ><tspan x="0" y="0">1</tspan>
</text></g>
<g transform="matrix(   1    0   -0    1 1088 416)" fill="#000000" >
<text stroke="none" font-family="Helvetica" font-size="40" ><tspan x="0" y="0">0</tspan>
</text></g>
<path d="M1232,304 L1232,352 " fill="none" stroke-width="2" stroke-linejoin="bevel" stroke-linecap="round" stroke="#000000" />
<g transform="matrix(   1    0   -0    1  16 336)" fill="#000000" >
<text stroke="none" font-family="Helvetica" font-size="40" ><tspan x="0" y="0">in[7:0]</tspan>
</text></g>
<path d="M176,320 L144,288 0,288 0,352 144,352 176,320 " fill="none" stroke-width="2" stroke-linejoin="bevel" stroke-linecap="round" stroke="#000000" />
<g transform="matrix(   1    0   -0    1 368 272)" fill="#000000" >
<text stroke="none" font-family="Helvetica" font-size="40" ><tspan x="0" y="0">[7:4]</tspan>
</text></g>
<g transform="matrix(   1    0   -0    1 368 464)" fill="#000000" >
<text stroke="none" font-family="Helvetica" font-size="40" ><tspan x="0" y="0">[3:0]</tspan>
</text></g>
<g transform="matrix(   1    0   -0    1 688 384)" fill="#000000" >
<text stroke="none" font-family="Helvetica" font-size="40" ><tspan x="0" y="0">[3:0]</tspan>
</text></g>
<g transform="matrix(   1    0   -0    1 800 304)" fill="#000000" >
<text stroke="none" font-family="Helvetica" font-size="40" ><tspan x="0" y="0">[3:2]</tspan>
</text></g>
<g transform="matrix(   1    0   -0    1 800 432)" fill="#000000" >
<text stroke="none" font-family="Helvetica" font-size="40" ><tspan x="0" y="0">[1:0]</tspan>
</text></g>
<g transform="matrix(   1    0   -0    1 1152 400)" fill="#000000" >
<text stroke="none" font-family="Helvetica" font-size="40" ><tspan x="0" y="0">[1:0]</tspan>
</text></g>
<g transform="matrix(   1    0   -0    1 1248 336)" fill="#000000" >
<text stroke="none" font-family="Helvetica" font-size="40" ><tspan x="0" y="0">[1]</tspan>
</text></g>
<g transform="matrix(   1    0   -0    1 1248 432)" fill="#000000" >
<text stroke="none" font-family="Helvetica" font-size="40" ><tspan x="0" y="0">[0]</tspan>
</text></g>
<g transform="matrix(   1    0   -0    1 1584 400)" fill="#000000" >
<text stroke="none" font-family="Helvetica" font-size="40" ><tspan x="0" y="0">NONE</tspan>
</text></g>
<g transform="matrix(   1    0   -0    1 1584 320)" fill="#000000" >
<text stroke="none" font-family="Helvetica" font-size="40" ><tspan x="0" y="0">out<tspan dy="9" font-size="26.8">0</tspan></tspan>
</text></g>
<g transform="matrix(   1    0   -0    1 1584 160)" fill="#000000" >
<text stroke="none" font-family="Helvetica" font-size="40" ><tspan x="0" y="0">out<tspan dy="9" font-size="26.8">1</tspan></tspan>
</text></g>
<g transform="matrix(   1    0   -0    1 1584  64)" fill="#000000" >
<text stroke="none" font-family="Helvetica" font-size="40" ><tspan x="0" y="0">out<tspan dy="9" font-size="26.8">2</tspan></tspan>
</text></g>
</g>
</svg>
