<svg xmlns="http://www.w3.org/2000/svg"
   xmlns:xlink="http://www.w3.org/1999/xlink"
   version="1.1"
   id="ex2-9-b" width="100%" height="100%"  viewBox="-6 -6 1202 442">
<desc>
XCircuit Version 3.8
File "ex2-9-b.ps" Page 1
</desc>
<g stroke="black">
<path d="M432,436 L320,436 320,268 432,268 " fill="none" stroke-width="3.5" stroke-linejoin="bevel" stroke-linecap="round" stroke="#000000" />
<path d="M432,436 A84,84 0 0,0 432,268 " fill="none" stroke-width="3.5" stroke-linejoin="bevel" stroke-linecap="round" stroke="#000000" />
<path d="M1072,224 A144,144 0 0,0 948,152 " fill="none" stroke-width="3" stroke-linejoin="bevel" stroke-linecap="round" stroke="#000000" />
<path d="M948,296 A144,144 0 0,0 1072,224 " fill="none" stroke-width="3" stroke-linejoin="bevel" stroke-linecap="round" stroke="#000000" />
<path d="M904,296 A120,120 0 0,0 904,152 " fill="none" stroke-width="3" stroke-linejoin="bevel" stroke-linecap="round" stroke="#000000" />
<path d="M904,152 L948,152 " fill="none" stroke-width="3" stroke-linejoin="bevel" stroke-linecap="round" stroke="#000000" />
<path d="M904,296 L948,296 " fill="none" stroke-width="3" stroke-linejoin="bevel" stroke-linecap="round" stroke="#000000" />
<path d="M336,32 L64,32 32,32 " fill="none" stroke-width="2" stroke-linejoin="bevel" stroke-linecap="round" stroke="#000000" />
<path d="M352,96 L32,96 " fill="none" stroke-width="2" stroke-linejoin="bevel" stroke-linecap="round" stroke="#000000" />
<path d="M336,160 L32,160 " fill="none" stroke-width="2" stroke-linejoin="bevel" stroke-linecap="round" stroke="#000000" />
<path d="M224,32 L224,288 320,288 " fill="none" stroke-width="2" stroke-linejoin="bevel" stroke-linecap="round" stroke="#000000" />
<path d="M160,96 L160,352 320,352 " fill="none" stroke-width="2" stroke-linejoin="bevel" stroke-linecap="round" stroke="#000000" />
<path d="M96,160 L96,416 320,416 " fill="none" stroke-width="2" stroke-linejoin="bevel" stroke-linecap="round" stroke="#000000" />
<path d="M816,96 L848,96 848,192 928,192 " fill="none" stroke-width="2" stroke-linejoin="bevel" stroke-linecap="round" stroke="#000000" />
<path d="M928,256 L848,256 848,352 512,352 " fill="none" stroke-width="2" stroke-linejoin="bevel" stroke-linecap="round" stroke="#000000" />
<path d="M1072,224 L1168,224 " fill="none" stroke-width="2" stroke-linejoin="bevel" stroke-linecap="round" stroke="#000000" />
<g transform="matrix(   1    0   -0    1   0  32)" fill="#000000" >
<text stroke="none" font-family="Helvetica" font-size="40" ><tspan x="0" y="0">A</tspan>
</text></g>
<g transform="matrix(   1    0   -0    1   0  96)" fill="#000000" >
<text stroke="none" font-family="Helvetica" font-size="40" ><tspan x="0" y="0">B</tspan>
</text></g>
<g transform="matrix(   1    0   -0    1   0 160)" fill="#000000" >
<text stroke="none" font-family="Helvetica" font-size="40" ><tspan x="0" y="0">C</tspan>
</text></g>
<g transform="matrix(   1    0   -0    1 1168 224)" fill="#000000" >
<text stroke="none" font-family="Helvetica" font-size="40" ><tspan x="0" y="0">Y</tspan>
</text></g>
<path d="M544,96 A192,192 0 0,0 378,0 " fill="none" stroke-width="4" stroke-linejoin="bevel" stroke-linecap="round" stroke="#000000" />
<path d="M378,192 A192,192 0 0,0 544,96 " fill="none" stroke-width="4" stroke-linejoin="bevel" stroke-linecap="round" stroke="#000000" />
<path d="M320,192 A160,160 0 0,0 320,0 " fill="none" stroke-width="4" stroke-linejoin="bevel" stroke-linecap="round" stroke="#000000" />
<path d="M320,0 L378,0 " fill="none" stroke-width="4" stroke-linejoin="bevel" stroke-linecap="round" stroke="#000000" />
<path d="M320,192 L378,192 " fill="none" stroke-width="4" stroke-linejoin="bevel" stroke-linecap="round" stroke="#000000" />
<path d="M616,186 L616,6 778,96 z" fill="none" stroke-width="4.5" stroke-linejoin="bevel" stroke-linecap="round" stroke="#000000" />
<ellipse cx="796" cy="96" rx="18" ry="18" fill="none" stroke-width="4.5" stroke-linejoin="bevel" stroke-linecap="round" stroke="#000000" />
<path d="M616,96 L580,96 " fill="none" stroke-width="4.5" stroke-linejoin="bevel" stroke-linecap="round" stroke="#000000" />
<path d="M814,96 L832,96 " fill="none" stroke-width="4.5" stroke-linejoin="bevel" stroke-linecap="round" stroke="#000000" />
<path d="M576,96 L544,96 " fill="none" stroke-width="2" stroke-linejoin="bevel" stroke-linecap="round" stroke="#000000" />
</g>
</svg>
