<svg xmlns="http://www.w3.org/2000/svg"
   xmlns:xlink="http://www.w3.org/1999/xlink"
   version="1.1"
   id="ex3-14-circuit" width="100%" height="100%"  viewBox="-6 -6 626 320">
<desc>
XCircuit Version 3.8
File "ex3-14-circuit" Page 1
</desc>
<g stroke="black">
<path d="M366,122 L366,314 494,314 494,122 z" fill="none" stroke-width="2" stroke-linejoin="bevel" stroke-linecap="round" stroke="#000000" />
<path d="M398,122 L430,154 462,122 " fill="none" stroke-width="2" stroke-linejoin="bevel" stroke-linecap="round" stroke="#000000" />
<path d="M430,122 L430,26 " fill="none" stroke-width="2" stroke-linejoin="bevel" stroke-linecap="round" stroke="#000000" />
<path d="M366,218 L270,218 " fill="none" stroke-width="2" stroke-linejoin="bevel" stroke-linecap="round" stroke="#000000" />
<path d="M494,218 L590,218 " fill="none" stroke-width="2" stroke-linejoin="bevel" stroke-linecap="round" stroke="#000000" />
<path d="M270,218 A96,96 0 0,0 187,170 " fill="none" stroke-width="2" stroke-linejoin="bevel" stroke-linecap="round" stroke="#000000" />
<path d="M187,266 A96,96 0 0,0 270,218 " fill="none" stroke-width="2" stroke-linejoin="bevel" stroke-linecap="round" stroke="#000000" />
<path d="M158,266 A80,80 0 0,0 158,170 " fill="none" stroke-width="2" stroke-linejoin="bevel" stroke-linecap="round" stroke="#000000" />
<path d="M158,170 L187,170 " fill="none" stroke-width="2" stroke-linejoin="bevel" stroke-linecap="round" stroke="#000000" />
<path d="M158,266 L187,266 " fill="none" stroke-width="2" stroke-linejoin="bevel" stroke-linecap="round" stroke="#000000" />
<path d="M174,202 L78,202 " fill="none" stroke-width="2" stroke-linejoin="bevel" stroke-linecap="round" stroke="#000000" />
<path d="M174,234 L78,234 " fill="none" stroke-width="2" stroke-linejoin="bevel" stroke-linecap="round" stroke="#000000" />
<g transform="matrix(   1    0   -0    1  46 202)" fill="#000000" >
<text stroke="none" font-family="Helvetica" font-size="40" ><tspan x="0" y="0">D</tspan>
</text></g>
<g transform="matrix(   1    0   -0    1  78 266)" fill="#000000" >
<text stroke="none" font-family="Helvetica" font-size="40" ><tspan x="-78" y="0">SET</tspan>
</text></g>
<g transform="matrix(   1    0   -0    1 430  26)" fill="#000000" >
<text stroke="none" font-family="Helvetica" font-size="40" ><tspan x="-39" y="0">CLK</tspan>
</text></g>
<g transform="matrix(   1    0   -0    1 590 234)" fill="#000000" >
<text stroke="none" font-family="Helvetica" font-size="40" ><tspan x="0" y="0">Q</tspan>
</text></g>
</g>
</svg>
